<?xml version="1.0" encoding="UTF-8"?>
<svg xmlns="http://www.w3.org/2000/svg" viewBox="0 0 64 64" width="64" height="64">
  <title>LeadGrid</title>
  <defs>
    <radialGradient id="lgHalo" cx="50%" cy="50%" r="50%">
      <stop offset="0%" stop-color="#FF8A5E"/>
      <stop offset="60%" stop-color="#FF5C35"/>
      <stop offset="100%" stop-color="#E83A1C"/>
    </radialGradient>
  </defs>
  <circle cx="32" cy="32" r="29" fill="url(#lgHalo)"/>
  <circle cx="32" cy="32" r="29" fill="none" stroke="#D8240C" stroke-width="1.5"/>
  <g fill="#B81E08">
    <circle cx="32" cy="32" r="2.6"/>
    <circle cx="25" cy="32" r="2.0"/>
    <circle cx="39" cy="32" r="2.0"/>
    <circle cx="32" cy="25" r="2.0"/>
    <circle cx="32" cy="39" r="2.0"/>
    <circle cx="25" cy="25" r="1.7" opacity="0.9"/>
    <circle cx="39" cy="25" r="1.7" opacity="0.9"/>
    <circle cx="25" cy="39" r="1.7" opacity="0.9"/>
    <circle cx="39" cy="39" r="1.7" opacity="0.9"/>
    <circle cx="18" cy="32" r="1.5" opacity="0.8"/>
    <circle cx="46" cy="32" r="1.5" opacity="0.8"/>
    <circle cx="32" cy="18" r="1.5" opacity="0.8"/>
    <circle cx="32" cy="46" r="1.5" opacity="0.8"/>
    <circle cx="18" cy="25" r="1.25" opacity="0.7"/>
    <circle cx="18" cy="39" r="1.25" opacity="0.7"/>
    <circle cx="46" cy="25" r="1.25" opacity="0.7"/>
    <circle cx="46" cy="39" r="1.25" opacity="0.7"/>
    <circle cx="25" cy="18" r="1.25" opacity="0.7"/>
    <circle cx="39" cy="18" r="1.25" opacity="0.7"/>
    <circle cx="25" cy="46" r="1.25" opacity="0.7"/>
    <circle cx="39" cy="46" r="1.25" opacity="0.7"/>
    <circle cx="12" cy="32" r="1.0" opacity="0.55"/>
    <circle cx="52" cy="32" r="1.0" opacity="0.55"/>
    <circle cx="32" cy="12" r="1.0" opacity="0.55"/>
    <circle cx="32" cy="52" r="1.0" opacity="0.55"/>
    <circle cx="18" cy="18" r="1.0" opacity="0.55"/>
    <circle cx="46" cy="18" r="1.0" opacity="0.55"/>
    <circle cx="18" cy="46" r="1.0" opacity="0.55"/>
    <circle cx="46" cy="46" r="1.0" opacity="0.55"/>
  </g>
</svg>
